<?xml version="1.0" encoding="UTF-8"?><svg xmlns="http://www.w3.org/2000/svg" viewBox="0 0 708.66 400"><g id="Layer_1"><path d="M58.76,221.51c-3.97,1.04-10.39,2.04-14.37,3.07-1.71.45-5.57,1.54-7.3,2.03-2.24.63-5.01,1.65-7.44,1.47.03-1.32,3.76-2.48,4.98-2.92,4.81-2.04,15.77-5.23,20.89-6.56,3.6-.88,4.58-1.65,7.39-3.89,5.34-4.36,9.78-8.83,14.06-14.3l-.11-.3c-3.77-.04-9.13-.02-12.85.67-2.89.39-2.96-.34-7.45.49-2.64.49-5.24.75-7.9,1.05-2.3.25-7.02.79-9.33,1.06-3.42.6-6.86,1.12-10.36,1.19.3-2.87,13.88-3.76,16.67-4.37,4.17-.59,17.27-2.46,21.21-3.03,5.21-1.11,8.78.77,13.91-.83,3.03-2.04,6.5-7.72,8.81-10.61,1.53-2.05,5.36-7.62,6.89-9.75-4.18.01-9.44,2.99-13.54,3.26,0,0-5,.1-5,.1-.82.02-3.11.66-6.25.74-4.67.04-10.02.56-14.7-.01,1.4-2.48,4.66-1.96,6.41-2.58,0,0,16.8-6.97,16.8-6.97,6.68-3.39,12.31-9.87,18.59-13.95l-3.03-6.08c-2.73-5.72-3-12.25-4.92-18.24-.48-1.82-1.94-6.02-1.91-7.93-.13-3.29-.36-8.18-.46-11.44-.15-5.13-.69-10.93-.54-16.05.64-3.84,1.34-5.71,2.46-9.45.19-.8.47-1.66,1-2.29,1.69-1.96,6-1.32,8.28-.82,1.49.33,4.15.91,5.61,1.24,2.7.21,14.76,5.82,17.52,6.91,5.12,2.45,10.38,5.5,14.51,9.42,3.65,3.77,8.96,8.17,11.93,12.42,1.28,1.7,2.23,3.45,2.9,5.5.41,1.26,2.41-.71,2.53-.78,8.33-5.18,18.28-7.8,27.84-9.66,4.45-.1,9.3-1.35,13.76-1.28,4.88-.77,10.77-.71,15.69-.86,4.43-.25,8.26.25,12.76.8,2.2-.08,4.85.4,6.97,1.06,12.1,1.65,23.84,5.99,34.03,12.77.48.29,3.86,2.34,4.04,1.41.4-2.2,3.23-8.04,4.24-10.14,3.41-7.02,10.54-14.56,16.39-19.56,2.13-1.4,6.56-4.28,8.7-5.69,2-1.42,6.42-4.06,8.64-5.15,1.49-.87,3.29-1.56,4.87-2.2,1.39-.43,2.96.79,3.59,2,1.51,2.9,4.34,6.19,5.49,9.23,0,0,2.61,6.85,2.61,6.85,1.21,3.7,1.85,7.54,2.78,11.34,0,2.16.4,4.99.61,7.12.59,8.58-.8,18.7.71,27.19.92,5.38,1.9,16.95,4.15,21.9,2.33,6.05,6.6,11.46,10.48,16.58,1.94,2.73,4.02,1.99,3.01,3.95-1.98,1.81-2.99.35-4.21-.26,0,0-3.16-1.21-3.16-1.21-1.67-.8-6.06-3.16-7.75-4.09-.04-.02-.22-.09-.3-.11l-.41-.15c-1.29-.48.99,2.96.79,2.61,4.39,7.64,10.06,17.73,13.02,25.94.87,2.19,2.76,7.05,3.18,9.33,0,0,.13.63.13.63.11.23.76.19,1.02.24.49.04,1.69.52,2.17.67,5.74,1.76,12.73,3.8,18.57,6,1.6.65,4.92,2.04,5.93,3.26l-.2.14c-2.59.04-9.54-2.11-12.39-3.03-.16-.07-.54-.17-.71-.23,0,0-12.55-3.84-12.55-3.84-.63-.1-.86.23-.79.69.03.96.28,1.94.36,2.9.06.63.02,1.35.12,1.98.1.28.24.65.35.93.29.76.47,1.7.41,2.5-.03.47-.48,1.66-.64,2.12-.14.24-.14.61.1.8,7.38,2.94,15.03,4.93,21.51,9.63.11.07.84.72.49.71-2.81.11-6.06-1.33-8.61-2.4-3.89-1.63-7.75-3.02-11.79-4.3-3.37-.91-12.15-4.28-15.39-4.2-.06.31-.19.71-.08,1.02,0,0,.99,2.95.99,2.95.44,1.39,1.94,5.45,2.47,6.88.97,2.66,1.55,3.31,4.12,4.83,6.49,3.9,13.54,7.76,19.52,12.39,1.8,1.41,4.45,3.54,5.72,5.48,1.72,1.75-1.52.55-3.29-.64-6.17-4.68-14.67-9.04-21.1-13.26-.51.04-.92.06-.57.66.6,1.14,1.89,3.6,2.5,4.75.88,1.6,1.63,3.58,2.49,5.16.84,1.4,2.08,3-.35,3.29-2.05-.16-4.55.07-6.39-.99-.62-.33-2.04-.39-3.62-.86-2.3-.7-3.83-1.09-5.47-2.64-.58-.55-.58.06-2.46-1.17l-2.45-1.61c-.16-.1-.63.12-.76.32l-9.15,14.02c-2.54,2.78-4.74,6.08-7.63,8.46-11.99,11.05-25.96,20.11-41.43,25.57-7,2.88-21.09,6.16-28.51,7.96,0,0-2.41.14-2.41.14,1.73-.1-7.75,1.37-6.73,1.16-4.36.95-9.05.64-13.45,1.31-7.2.89-14.77-.43-21.99-.7-4.76.02-5.38-.86-9.76-1.11-2.66-.53-14.76-2.49-16.93-3.64-4.85-.69-10.92-2.86-15.53-4.5-22.19-7.72-41.21-22.22-56.82-39.58-2.59-3.22-5.95-8.01-8.49-11.29-1.7-2.24-3.33-6.15-4.72-8.59-2.04-4.5-2.69-9.31-5.73-1.79-1.14,2.74-2.54,5.63-3.18,8.53-.26,1.94-1.78,4.85-2.62,6.61-.49-.34-1.25-.87-1.44-1.38-1.34-3.5-1.17-3.43-1.89-6.91-.77-3.47-.7-8.51-.77-12.08-2.9-.29-5.18,1.64-7.85,2.31-3.45,1.3-12.3,4.66-15.86,6-3.21,1.27-12.89,5.82-16.21,6.32-.12-2.01,9.31-6.36,11.43-7.34,5.86-2.39,23.17-9.62,28.89-11.53l1.19-5.23c.13-.65,2.91-8.26,3.18-9.09.84-1.8,2.29-3.77,3.03-5.67.24-.97,0-.76-.7-.58-5.11.84-10.59,1.81-15.62,3.68ZM120.41,217.29c-3.77-.75-9.9-1.05-13.76-.99-4.51-.1-14.17-.06-18.74,0-1.13,0-2.82.21-3.96.29-1.38.22-3.6.23-4.52,1.49-2.56,3.12-5.31,9.63-6.56,13.25-.28,1.49-1.26,3.78-.93,5.29.2.09.82.25,1.01.17l2.16-.92c3.79-.97,11.5-3.3,15.02-4.19,13.14-3.1,27.57-5.58,41.11-6.95,5.11-.17,12.98-.25,17.73.72,0,0,2.25.32,2.25.32.84.12,1.71,1.74.98,1.82l-2.62.31c-.19.02-.33.04-.4.04-.34.02-.93.03-1.29.04-1.39.03-9.65-.1-11.03-.18,0,0-3.56-.05-3.56-.05-3.78-.05-4.13,1.16-9.17,1.1-6.86,1.06-22.79,4.08-29.72,5.21-3.79,1.09-7.72,2.1-11.41,3.36-.36.12-.72.56-.63.98,1.62,7.33,5.69,14.03,9.94,20.13,1.75,2.58,8.79,11.96,10.56,13.33,3.15,2.31,5.75,5.41,8.79,7.95,6.33,5.24,13.45,11.28,20.55,15.33,12.69,7.56,27.54,13.13,41.97,16.28,10.36,1.38,22.23,4.45,32.66,3.87,3.26-.01,10.63-.25,13.96-.24,3.95-.06,3.24-.81,8.12-.72,1.17.02,2.15-.35,3.26-.56l16.49-3.16c7.9-2.23,17.78-5.11,25.32-8.45,9.77-4.15,19.39-10.25,27.65-16.9,1.8-1.43,3.68-3.43,5.52-4.88,0,0,2.16-2.62,2.16-2.62,3.19-4,13.19-16.14,15.43-20.6.32-.51,1.4-2.5,2.26-1.84.73.55,2.17,1.67,2.9,2.22.1.18.3.59.34.81.35.47,1.23.01,1.63.41,2.06,2.25,11.9,5.44,13.01,4.86.13-.08.02-.51-.07-.65-.3-.56-.99-1.39-1.26-1.95-.34-.61-.64-1.28-1.01-1.87-.48-.79-.96-1.62-1.15-2.54-.07-.56-.31-.76-.72-1.04-.26-.16-.38-.33-.61-.59-1.99-2.82-1.43-4.26-5.58-6.06-1.17-.45-1.66-.92-2.53-1.29-1.97-.85-10.62-4.75-12.44-5.26-6.16-2-14.86-4.43-21.21-5.83-2.5-.36-10.4-1.58-12.63-2.34-1.7-.96-12.64-.4-12.01-3.68.12-.17.49-.15.68-.19.56-.06,1.94-.26,2.52-.16.51-.07,3.19.59,3.73.65,9.37.2,24.52,4.55,33.72,6.6,6.31,2.1,11.78,3.87,17.76,6.8,0,0,2.52,1.21,2.52,1.21.11.05.5.06.49-.04-.1-1.5-.63-2.91-1.12-4.31-.56-1.64-1.11-3.3-1.67-4.94-.39-1.13-.79-2.29-1.17-3.43-.15-.49-.83-.4-1.24-.49-.45-.07-.97-.1-1.4-.25-1.28-.37-2.56-.81-3.81-1.25-.19-.13-9.37-1.62-9.52-1.67-.86-.14-2.97-.24-3.89-.35,0,0-1.42-.81-3.99-.95-.33,0-2.23-.11-2.51-.16-1.21-.16-3.3-.36-4.52-.49-3.17-.33-8.87-.76-11.99-1.1-6.68-.59-15.96.17-22.6-1.17-.55-.19.81-1.43,1.81-1.42,3.93-.7,13.81-.59,17.91-.55,2.54.07,7.19-.04,9.63.51,4.23.77,4.38-.23,8.95.79,3.41.66,6.62.78,9.98,1.42,1.08.2,12.7,2.63,13.52,2.68,0,0,1.24.17,1.24.17.12.02.42-.04.43-.14l.04-.5c0-.06,0-.41-.01-.47-.91-2.75-1.46-5.82-1.73-8.68,0-.44-.22-1.01-.76-1.07-1.55-.07-2.87-.11-4.3-.35-3.46-.78-7.84-.76-11.39-.93-8.19-.87-15.67-.6-23.82.15-9.67.56-20.92,2.41-30.55,3.8-5.74-.17-3.07-3.22,1.05-3.24,2.88-.4,7.27-.75,10.03-1.67,5.01-.92,10.55-1.6,15.6-2.04,6.71-.79,13.59-1.25,20.32-.59,0,0,9.5.65,9.5.65,1.74.08,5.7-.03,7.38.39,1.07.04,6.5,1.32,5.98-.31-.08-2.68-1.47-7.96,1.1-9.76,1.18.94.77,1.51,1.2,1.89,1.64,1.29,7.41,7.02,9,8.58,1.04,1.02,1.77,2.81,2.73,3.12l2.28.72c.84-.04-.01-1.81-.18-2.43,0,0-2.22-5.74-2.22-5.74-1.31-5.29-11.9-23.4-14.52-28.5-1.85-3.34-4.71-5.99-5.16-9.99l.43-.4c2.52.38,4.56,2.39,6.42,3.9,2.05,1.55,12.44,8.99,8.42,3.67-.73-.8-3.69-5.15-4.17-6.05-2.09-3.41-3.74-8.86-4.59-12.75,0,0-1.16-4.62-1.16-4.62-.06-.17-.11-.5-.17-.66-.49-1.48-.02-2.57-.36-4.03-2.1-7.03-1.02-15.75-.79-22.96,1.08-8.16-2.85-21.35-4.17-29.34-.34-1-7-13.2-7.1-13.73-.11-.21-.5-.6-.72-.48l-2.22,1.24c-7.06,3.74-15.96,8.72-22.01,13.81-6.9,6.3-11.63,14.46-15.07,23.06-1.31,4.39-1.29,8.01-7.19,4.06-4.18-2.48-11.72-6.95-16.18-8.3-4.52-1.15-15.21-5.08-19.66-5.42,0,0-3.77-.59-3.77-.59-4.73-.74-5.23-.09-8.26-.5l-4.47-.6c-4.23-.13-9.93.45-14.16.63-3.44.2-8.52.56-11.96.84-6.03.33-18.48,4.15-24.27,5.97-1.68.48-11.3,5.69-12.35,4.3-.1-2.25-1.09-1.54-2.5-3.65-.27-.4-.55-.95-.83-1.26-3.04-3.38-7.01-7.61-10.2-10.85-2.88-3.17-6.62-5.75-10.37-7.78-6.95-4.35-14.79-7.46-22.7-9.62-2.29-.65-4.68-.72-6.99-1.49-.75-.2-3.31-1.07-3.54-.1-.3,1.08-3.5,13.87-3.38,14.63-.07,3.64-.03,11.17.17,14.76.26,3.93.67,8.35.83,12.29-.11,5.49,2.82,10.66,5.11,15.48,0,0,3.32,7.71,3.32,7.71,2,4.04,2.99,4.27-.81,7.54-5.05,4.35-10.85,9.48-16.51,13-2.17,1.36-3.48,1.37-4.92,2.8-.24.1-1.58.09-.55.47.13.06.57-.32.73-.32,1.59-.09,4.02.02,5.53-.37,0,0,10.47-2.94,10.47-2.94,3.12-.88,6.91-3.28,10.97-3.6l.42.2c-.19,2.1-1.86,2.74-2.57,3.48-1.29,1.35-2.32,2.88-3.26,4.48-2.72,5.14-7.53,11.34-11.2,15.9-.12.24-2.7,3.29-2.38,3.56,0,.1,4.45.17,4.61.19,6.04.05,12.13.95,17.78,2.09,2.28.16,5.57,1.01,7.8,1.62,9.07,1.93,19.44,4.45,27.98,8.26.95.46,15.7,6.3,16.09,6.95.99.63,4.69,2.25,5.13,3.64l-.22.41c-7.13-1.52-13.66-5.15-20.49-7.57-2.33-.78-9.22-3.16-11.65-4.02-5.71-1.91-11.92-3.23-17.76-4.56-5.81-1.26-13.81-2.86-19.15-3.1-4.64-.99-7.77-.34-12.59-.7-1.49.12-4.71,4.2-5.83,5.4-2.07,2.29-5.28,5.53-7.32,7.81-.07.47.83.21,1.83-.22,4.8-2.24,7.31-4.35,11.24-7.01,1.27-.62,4.07-3.55,5.64-3.02.33.13,1.02,1.42.37,2.11-1.81,1.92-3.45,3.71-5.14,5.72-3.51,4.04,1.45,2.68,3.8,2.43,2-.27,4,.02,6.04.06,9.87.33,22.27.05,32.08.95,1.43-.06,2.68.28,4.05.64,1.77.47,1.8-.35,5.74.75,2.08.38,6.37,1.39,8.46,1.92,0,0,12.38,3.22,12.38,3.22.9.24,1.66.66,1.7,1.76-2.06.09-5.91-.89-7.95-1.32-2.15-.3-7.76-.94-9.76-1.53-3.28-.64-2.87-.03-6.22-1.05-4.32-.82-9.66-.91-14.22-1.27ZM329.79,211.12v3.49c7.35,3.96,3.92-1.61,0-3.49ZM341.96,232.28c1.36.42,2.59.67,4.07.89-.06-1.3-3.67-6.59-4.28-7.77-4.41-7.32-5.22-5.04-8.99-6.72-2.71-.94-2.15.18-1.57,2.85.05,2.39,1.65,5.34,2.09,8.14,2.17.63,6.54,1.94,8.68,2.61ZM344.53,221.75c-.1-.18-.81-.24-.93-.19.07.68.26,1.19.85,1.6.18-.27.26-1.09.08-1.41ZM71.2,253.27l2.6-6.09c1.21-3.34,3.58-5.61,5.21-8.72-1.61.39-4.84,1.23-6.44,1.66-3.04.94-1.42,10.42-1.37,13.15Z"/><path d="M120.41,217.29c4.55.35,9.9.45,14.22,1.27,3.35,1.02,2.94.41,6.22,1.05,1.97.58,7.65,1.24,9.76,1.53,2.04.42,5.87,1.41,7.95,1.32-.04-1.1-.8-1.52-1.7-1.76l-12.38-3.22c-2.15-.54-6.38-1.54-8.46-1.92-3.94-1.1-3.97-.27-5.74-.75-1.37-.37-2.61-.7-4.05-.64-9.8-.9-22.22-.62-32.08-.95-2.03-.04-4.03-.33-6.04-.06-2.27.23-7.34,1.63-3.8-2.43,1.69-2.01,3.34-3.8,5.14-5.72.65-.69-.05-1.99-.37-2.11-1.55-.53-4.43,2.39-5.64,3.02-2.17,1.36-11.27,8.38-13.07,7.23,2.03-2.28,5.23-5.53,7.32-7.81,1.12-1.19,4.35-5.28,5.83-5.4,4.83.36,7.95-.29,12.59.7,5.35.24,13.34,1.83,19.15,3.1,5.84,1.32,12.06,2.64,17.76,4.55,2.43.87,9.28,3.23,11.65,4.02,6.83,2.42,13.36,6.05,20.49,7.57l.22-.41c-.54-1.44-3.93-2.89-5.13-3.64-.41-.69-15.03-6.44-16.09-6.95-8.55-3.81-18.9-6.33-27.98-8.26-2.23-.62-5.51-1.46-7.8-1.62-5.63-1.14-11.76-2.04-17.78-2.09,0,0-4.19-.13-4.19-.13-.14,0-.32-.05-.42-.07-.42-.27,2.33-3.29,2.38-3.56,3.69-4.57,8.46-10.74,11.2-15.9.95-1.6,1.97-3.12,3.26-4.47.71-.74,2.38-1.38,2.57-3.48l-.42-.2c-4.06.32-7.85,2.72-10.97,3.6l-10.47,2.94c-1.5.39-3.95.28-5.53.37-.16,0-.6.38-.73.32-1.01-.38.28-.37.55-.47,1.44-1.43,2.75-1.44,4.92-2.8,4.44-2.77,9.55-6.95,13.48-10.41,1.61-1.5,4.1-3.27,5.35-5.04,1.14-1.76-1.1-3.4-1.51-5.09,0,0-3.32-7.71-3.32-7.71-1.43-3.33-3.72-7.16-4.52-10.73-.85-3.12-.51-6.75-.89-9.95-.35-3.91-.65-9.37-.74-13.33,0,0,.04-8.51.04-8.51,0-.5.08-1.11.24-1.76l3.14-12.87c.24-.97,2.79-.1,3.54.1,2.31.77,4.69.85,6.99,1.49,7.93,2.17,15.74,5.27,22.7,9.62,3.8,2.04,7.48,4.6,10.37,7.78,3.22,3.25,7.14,7.47,10.2,10.85.29.32.56.86.83,1.26,1.41,2.11,2.4,1.4,2.5,3.65.93,1.41,10.78-3.84,12.35-4.3,5.83-1.82,18.25-5.61,24.27-5.97,3.46-.27,8.51-.65,11.96-.84,4.22-.19,9.93-.76,14.16-.63,0,0,4.47.6,4.47.6,3.02.41,3.53-.24,8.26.5,3.79.71,6.31.69,9.96,1.93,0,0,13.47,4.08,13.47,4.08,4.46,1.35,12,5.82,16.18,8.3,5.87,3.93,5.88.35,7.19-4.06,3.44-8.61,8.17-16.77,15.07-23.06,6.04-5.08,15.01-10.1,22-13.81,0,0,2.22-1.24,2.22-1.24.22-.12.61.26.72.48l.82,1.64,6.28,12.09c1.46,8.03,5.05,21.13,4.17,29.34-.22,7.21-1.32,15.93.79,22.96.34,1.46-.12,2.56.36,4.03.01.16.15.5.17.66,0,0,1.16,4.62,1.16,4.62.81,3.87,2.55,9.35,4.59,12.75.97,1.61,3.08,4.78,4.17,6.05,4.21,5.54-7.34-2.82-8.42-3.67,0,0-3.11-2.53-3.11-2.53-.86-.72-2.25-1.09-3.31-1.37l-.43.4c.45,4,3.3,6.65,5.16,9.99,2.67,5.21,13.15,23.1,14.52,28.5,0,0,2.22,5.74,2.22,5.74.17.61,1.03,2.39.18,2.43l-2.28-.72c-.96-.3-1.69-2.1-2.73-3.12-1.63-1.59-7.33-7.26-9-8.58-.42-.37-.02-.95-1.2-1.89-2.56,1.81-1.2,7.09-1.1,9.76.55,1.63-4.97.36-5.98.31-1.65-.43-5.63-.32-7.38-.39,0,0-9.5-.65-9.5-.65-6.73-.66-13.62-.2-20.32.59-5.04.44-10.61,1.12-15.6,2.04-2.76.92-7.16,1.26-10.03,1.67-3.92-.01-6.94,3.04-1.05,3.24,9.67-1.4,20.86-3.25,30.55-3.8,8.14-.76,15.63-1.03,23.82-.15,3.55.17,7.91.14,11.39.93,1.42.23,2.75.27,4.3.35.5.06.77.63.76,1.07.26,2.85.83,5.94,1.73,8.68.02.06.02.41.01.47l-.04.5c-.12.32-1.42-.04-1.67-.03-.89-.08-12.34-2.45-13.52-2.68-3.39-.65-6.56-.76-9.98-1.42-4.57-1.01-4.72-.02-8.95-.79-2.43-.54-7.12-.43-9.63-.51-4.11-.04-13.93-.15-17.91.55-.93-.03-2.43,1.27-1.81,1.42,6.64,1.33,15.92.57,22.6,1.17,3.09.33,8.83.78,11.99,1.1,1.38.13,3.54.36,4.91.54,0,0,2.11.11,2.11.11,2.57.14,3.99.95,3.99.95.79.13,3.07.21,3.89.35.04.04,9.38,1.53,9.52,1.67,1.25.45,2.53.89,3.81,1.25.42.15.96.18,1.4.25.4.09,1.09,0,1.24.49.37,1.14.78,2.3,1.17,3.43.57,1.64,1.12,3.3,1.67,4.94.48,1.4,1.02,2.81,1.12,4.31-.1.44-2.8-1.14-3.01-1.17-5.97-2.93-11.44-4.71-17.76-6.8-7-1.8-21.89-5.18-29.03-6.35-1.51-.36-3.54-.03-4.69-.25-.53-.12-3.25-.67-3.73-.65-.57-.14-1.94.13-2.52.16-.19.06-.55,0-.68.19-.62,3.27,10.28,2.72,12.01,3.68,2.22.73,10.22,1.98,12.64,2.34,6.34,1.42,15.05,3.83,21.2,5.84,2,.4,10.44,4.56,12.44,5.26.89.37,1.36.84,2.53,1.29,4.15,1.8,3.6,3.24,5.58,6.06,0,0,.19.22.19.22.28.31.09.13.41.37l.25.18c.34.25.35.4.47.86.18.92.68,1.75,1.15,2.54.37.59.68,1.26,1.01,1.87.56.88.73,1.18,1.26,1.95.09.14.2.57.07.65-1.12.58-10.95-2.61-13.01-4.86-.4-.4-1.27.06-1.63-.41-.05-.22-.2-.63-.34-.81-.79-.56-2.13-1.67-2.9-2.22-.85-.65-1.94,1.33-2.26,1.84-2.13,4.43-12.25,16.66-15.43,20.6,0,0-2.16,2.62-2.16,2.62-1.86,1.43-3.71,3.44-5.52,4.88-8.27,6.65-17.88,12.75-27.65,16.9-7.54,3.34-17.41,6.22-25.32,8.45,0,0-16.49,3.16-16.49,3.16-1.11.21-2.1.58-3.26.56-4.88-.09-4.17.66-8.12.72-3.29-.08-10.7.24-13.96.24-10.41.59-22.36-2.46-32.66-3.87-14.42-3.16-29.27-8.71-41.97-16.28-7.07-4.04-14.31-10.08-20.55-15.33-3.04-2.54-5.64-5.64-8.79-7.95-1.77-1.37-8.81-10.75-10.56-13.33-4.23-6.1-8.32-12.79-9.94-20.13-.09-.42.27-.87.63-.98,3.59-1.25,7.86-2.32,11.41-3.36,6.94-1.2,23.16-4.12,29.72-5.21,5.04.06,5.39-1.15,9.17-1.1l3.56.05c1.36.07,9.6.21,11.03.18.98.04,3.27-.28,4.3-.39.73-.09-.14-1.7-.98-1.82l-2.25-.32c-12.59-2.17-26.6.21-39.14,2.19-7.74,1.46-16.87,3.1-24.24,5.3,0,0-10.47,2.93-10.47,2.93l-2.16.92c-.18.08-.81-.08-1.01-.17-.33-1.51.64-3.8.93-5.29,1.27-3.63,4-10.12,6.56-13.25.92-1.26,3.13-1.28,4.52-1.49,1.15-.08,2.82-.29,3.96-.29,4.58-.05,14.22-.1,18.74,0,3.85-.05,10,.24,13.76.99ZM128.4,135.83c-.14-.43-3.03-5.76-2.71-6.12,1.65,1.22,3.85,2.99,5.62,4.04.79,1.43,2.4,2.48,3.68,3.42.83.55,2.17,2,3.34,1.69.43-2.42-2.29-6.12-3.31-8.32-4.25-8.04-11.13-14.88-17.72-21.05-2.64-2.27-10.5-10.37-13.7-9.66.81,3.7,4.93,5.26,7.22,8.02,0,0,13.28,13.16,13.28,13.16,1.03,1.17,1.83,2.65,3.21,3.48-.1-.1,1.87,2.62,1.19,2.83-3.78-2.3-5.91-3.81-10.22-5.09-2.87.56-.45,2.7.95,3.7.98,1.26,4.81,8.33,5.78,9.82.69,1.18,1.44,2.27,1.61,3.62l-3.12-.97c-3.05-.38-2.6,1.9-.44,3.02,7.78,3.21,8.92,2.2,5.35-5.6ZM299.9,134.21l-2.8,1.82c-.46-.89,3.58-7.42,3.87-7.78,2-3.08,6.03-9.08,8.31-12.1.22-.31,1.07-.81,1.07-1.2l.03-1.54c-3.52-.1-5.92,3.26-8.79,4.76.39-1.82,2.37-4.46,3.23-6.05,0,0,4.53-7.56,4.53-7.56.37-.62,1.75-2.51.49-3.22-1.56-.88-4.21,2.86-4.99,4.22l-10.93,19.14c-.18.32-.11.94-.3,1.17-1.87,2.39-3.61,5.98-3.33,9.02.17.92,2.26.48,3.2-1.6.29-.64.76-1.2,1.55-1.25-.5,1.67-5.81,11.82-2.38,11.35,2.49-1.45,4.24-3.99,6.69-5.51,1.21-.86,5.15-3.42,5.09-4.82-1.56-.43-3.44.46-4.55,1.18ZM179.47,205.5c2.91,3.5,4.71,1.67,2.96-1.63-3.5-4.49-7.87-8.94-12.83-11.95-4.23-1.9-10.27-3.84-14.86-4.55-1.65-.13-10.36-.26-11.36.11l-2.62.96v1.29c-.02.7,7.86.62,8.73.69,12.27.97,22.2,5.35,29.98,15.08ZM261.12,197.66c6.26-.43,12.56,1.86,18.29,3.85,0,0,3.11,1.9,3.11,1.9.3.18,1.18.02,1.43-.19,2.32-3.71-5.67-6.26-8.17-7.04-13.38-4.92-30.43-2.14-40.58,8.12-.59.73-.97,2.99.54,2.86,1.15-.19,4.93-3.03,5.95-3.65,0,0,11.9-4.8,11.9-4.8,1.72-.71,5.67-.78,7.53-1.05ZM215.17,246.95c3.93,3.47,8.9,4.25,13.96,5.01,1.24.33,3.41-.32,4.63-.54.72-.15,1.57-.21,2.22-.48,3.15-1.33,8.35-2.98,8.82-7.15-1.34.02-2.44.38-3.52.98-6.72,3.79-12.58,4.76-19.79,1.55-7.54-2.79-11.1-10.9-11.06-18.52-.19-2.42-.91-3.74.9-5.11,2.15-1.34,4.17-5.29,5.54-7.34,1.06-1.56,2.03-4.24-.19-5.28-2.46-1.2-4.27-.93-6.74-1.39-1.91-.79-7.13-.35-9.18-.44-4.27,1.57-.48,7.27,1.42,9.44.87,1.35,4.18,3.91,3.82,5.76-1.02,7.06-5.24,13.44-10.66,17.85-4.7,3.92-12.8,5.33-18.55,4.09-3.32-.87-5.91-3.09-8.78-4.83-4.58-.86,1.18,4.6,2.32,5.46,5.67,4.86,17.34,3.83,23.66.82,4.82-2.67,9.72-7.45,12.17-12.44.13-.23.92-.53,1-.28l1.35,4.09c1.16,3.51,3.95,6.36,6.66,8.76Z" fill="#fff"/><path d="M341.96,232.28c-2.13-.67-6.52-1.98-8.68-2.61-.44-2.81-2.03-5.74-2.09-8.14-.57-2.66-1.14-3.79,1.57-2.85,3.77,1.68,4.59-.59,8.99,6.72.6,1.21,4.21,6.43,4.28,7.77-1.49-.23-2.71-.47-4.07-.89Z" fill="#fff"/><path d="M71.2,253.27c-.05-2.71-1.68-12.22,1.37-13.15,1.6-.43,4.84-1.27,6.44-1.66-1.62,3.1-4,5.38-5.21,8.72,0,0-2.6,6.09-2.6,6.09Z" fill="#fff"/><path d="M329.79,211.12c3.93,1.89,7.34,7.45,0,3.49v-3.49Z" fill="#fff"/><path d="M344.53,221.75c.18.33.1,1.14-.08,1.41-.59-.42-.78-.93-.85-1.6.13-.05.84.01.93.19Z" fill="#fff"/><path d="M215.17,246.95c-2.71-2.4-5.5-5.25-6.66-8.76l-1.35-4.09c-.08-.25-.87.04-1,.28-2.45,4.98-7.35,9.77-12.17,12.43-6.34,3.02-17.95,4.04-23.66-.81-1.13-.86-6.91-6.33-2.32-5.46,2.87,1.74,5.45,3.97,8.78,4.83,5.77,1.24,13.84-.17,18.55-4.09,5.42-4.41,9.65-10.79,10.66-17.85.36-1.82-2.96-4.45-3.82-5.76-1.9-2.17-5.7-7.86-1.42-9.44,2.08.12,7.25-.34,9.18.44,2.47.46,4.28.19,6.74,1.39,2.21,1.05,1.26,3.72.19,5.28-1.4,2.08-3.38,5.98-5.54,7.34-1.81,1.38-1.1,2.7-.9,5.11-.04,7.62,3.52,15.73,11.06,18.52,7.23,3.21,13.04,2.25,19.79-1.55,1.09-.6,2.18-.96,3.52-.98-.48,4.17-5.67,5.82-8.82,7.15-.65.27-1.5.33-2.22.48-1.23.22-3.38.87-4.63.54-5.06-.77-10.04-1.54-13.96-5.01Z"/><path d="M128.4,135.83c3.58,7.81,2.42,8.81-5.35,5.6-2.16-1.12-2.62-3.39.44-3.02,0,0,3.12.97,3.12.97-.47-2.64-4.91-8.9-6.13-11.37-.39-.67-.72-1.57-1.26-2.07-.95-.87-2.22-1.49-2.31-2.69.98-3.15,9.61,3.06,11.57,4.07.68-.21-1.29-2.93-1.19-2.83-1.38-.84-2.17-2.31-3.21-3.48,0,0-13.28-13.16-13.28-13.16-2.29-2.76-6.41-4.31-7.22-8.02,3.14-.74,11.1,7.42,13.7,9.66,6.59,6.17,13.46,13,17.72,21.05,1.03,2.2,3.74,5.91,3.31,8.32-1.17.31-2.5-1.13-3.34-1.69-1.28-.95-2.88-1.98-3.68-3.42-1.77-1.04-3.97-2.82-5.62-4.04-.33.34,2.58,5.71,2.71,6.12Z"/><path d="M299.9,134.21c1.11-.72,2.99-1.6,4.55-1.18.06,1.4-3.88,3.96-5.09,4.82-2.45,1.52-4.21,4.06-6.69,5.51-3.43.47,1.87-9.66,2.38-11.35-.78.05-1.26.61-1.55,1.25-.95,2.08-3.03,2.52-3.2,1.6-.28-3.04,1.46-6.63,3.33-9.02.19-.22.12-.85.3-1.17l10.93-19.14c.78-1.36,3.43-5.1,4.99-4.22,1.25.71-.12,2.6-.49,3.22l-4.53,7.56c-.88,1.61-2.84,4.22-3.23,6.05,2.87-1.49,5.28-4.86,8.79-4.76l-.03,1.54c0,.38-.85.89-1.07,1.2-2.3,3.06-6.29,8.99-8.31,12.1-.29.36-4.33,6.89-3.87,7.78l2.8-1.82Z"/><path d="M261.12,197.66c-1.88.27-5.78.34-7.53,1.05,0,0-11.9,4.8-11.9,4.8-.98.64-4.79,3.43-5.95,3.65-1.5.13-1.13-2.13-.54-2.86,10.15-10.26,27.19-13.03,40.58-8.12,2.5.78,10.49,3.34,8.17,7.04-.25.21-1.13.37-1.43.19l-3.11-1.9c-5.74-1.99-12.03-4.27-18.29-3.85Z"/><path d="M179.47,205.5c-7.79-9.73-17.71-14.1-29.98-15.08-.87-.07-8.75,0-8.75-.69v-1.29s2.63-.96,2.63-.96c1.01-.37,9.71-.25,11.36-.11,4.57.7,10.65,2.65,14.86,4.55,4.96,3.02,9.32,7.46,12.83,11.95,1.71,3.2.03,5.2-2.96,1.63Z"/></g><g id="Layer_2"><path d="M432.3,243.19c3.8-11.26,8.29-21.99,13.47-32.2,4.08-7.97,9.55-17.98,16.42-30.01,5.08-8.89,8.43-14.2,10.03-15.93,1.6-1.73,3.25-2.6,4.95-2.6,1.46,0,2.2.64,2.2,1.91,0,.68-.32,1.57-.96,2.67-.6,1.05-2.5,4.12-5.7,9.23-10.58,17.14-18.3,31.22-23.15,42.25-4.4,9.89-8.18,19.57-11.34,29.05-1.15,3.42-2.41,5.95-3.78,7.59-2.02,2.46-4.05,3.69-6.12,3.69-1.88,0-3.07-1.34-3.57-4.03-.23-1.09-.34-3.19-.34-6.29,0-10.89,1.08-22.99,3.23-36.3,1.92-11.67,3.87-21.03,5.84-28.1-4.4,4.83-10.97,14.95-19.72,30.35-6.92,12.21-12.09,23.61-15.53,34.18-1.42,4.38-2.45,7.09-3.09,8.13-1.19,2-2.73,3.01-4.6,3.01-.78,0-1.44-.32-1.99-.96-.46-.55-.69-1.09-.69-1.64,0-1.73,1.49-6.31,4.47-13.74,3.85-9.66,10.24-22.01,19.17-37.05,5.31-8.98,11.63-18.53,18.96-28.64,3.48-4.83,6.07-7.95,7.76-9.37,1.56-1.28,3.02-1.91,4.4-1.91.59,0,1.12.18,1.58.55.64.5.96,1.12.96,1.85,0,.91-.23,1.94-.69,3.08-2.2,5.61-4.47,13.38-6.8,23.31-3.71,16-5.57,29.6-5.57,40.81,0,1.55.07,3.92.21,7.11Z" fill="#fff" stroke="#000" stroke-miterlimit="10"/><path d="M477.51,218.3c-1.97,2.73-3.71,4.92-5.22,6.56-2.66,2.92-5.29,4.38-7.9,4.38-2.24,0-3.99-1-5.22-3.01-.87-1.41-1.31-3.1-1.31-5.06,0-5.88,2.52-12.62,7.56-20.23,2.34-3.55,4.65-6.27,6.94-8.13,1.79-1.5,3.25-2.26,4.4-2.26.64,0,1.24.27,1.79.82.46.5.69,1,.69,1.5,0,.87-.85,2.28-2.54,4.24-3.8,4.51-6.69,8.66-8.66,12.44-2.29,4.42-3.43,7.88-3.43,10.39,0,.64.15,1.13.45,1.47.3.34.72.51,1.27.51,2.34,0,5.59-3.33,9.76-9.98,2.15-3.46,4.01-7.29,5.57-11.48.82-2.28,1.9-4.31,3.23-6.08,1.28-1.59,2.54-2.39,3.78-2.39.69,0,1.31.3,1.86.89.59.64.89,1.34.89,2.12,0,1.64-1.58,5.33-4.74,11.07-2.15,3.96-3.23,7.27-3.23,9.91,0,2.83.76,5.24,2.27,7.25.41.55,1.67,1.41,3.78,2.6,1.01.59,1.51,1.55,1.51,2.87,0,.82-.36,1.53-1.06,2.12-.71.59-1.57.89-2.58.89-2.29,0-4.37-.91-6.25-2.73-1.7-1.64-2.77-4.01-3.23-7.11-.09-.41-.21-1.59-.34-3.55Z" fill="#fff" stroke="#000" stroke-miterlimit="10"/><path d="M514.06,218.3c-1.97,2.73-3.71,4.92-5.22,6.56-2.66,2.92-5.29,4.38-7.9,4.38-2.24,0-3.99-1-5.22-3.01-.87-1.41-1.31-3.1-1.31-5.06,0-5.88,2.52-12.62,7.56-20.23,2.34-3.55,4.65-6.27,6.94-8.13,1.79-1.5,3.25-2.26,4.4-2.26.64,0,1.24.27,1.79.82.46.5.69,1,.69,1.5,0,.87-.85,2.28-2.54,4.24-3.8,4.51-6.69,8.66-8.66,12.44-2.29,4.42-3.43,7.88-3.43,10.39,0,.64.15,1.13.45,1.47.3.34.72.51,1.27.51,2.34,0,5.59-3.33,9.76-9.98,2.15-3.46,4.01-7.29,5.57-11.48.82-2.28,1.9-4.31,3.23-6.08,1.28-1.59,2.54-2.39,3.78-2.39.69,0,1.31.3,1.86.89.59.64.89,1.34.89,2.12,0,1.64-1.58,5.33-4.74,11.07-2.15,3.96-3.23,7.27-3.23,9.91,0,2.83.76,5.24,2.27,7.25.41.55,1.67,1.41,3.78,2.6,1.01.59,1.51,1.55,1.51,2.87,0,.82-.36,1.53-1.06,2.12-.71.59-1.57.89-2.58.89-2.29,0-4.37-.91-6.25-2.73-1.7-1.64-2.77-4.01-3.23-7.11-.09-.41-.21-1.59-.34-3.55Z" fill="#fff" stroke="#000" stroke-miterlimit="10"/><path d="M562.98,187.13c2.84,0,4.97.5,6.39,1.5,1.42,1,2.13,2.53,2.13,4.58,0,2.69-1.01,5.29-3.02,7.79-1.92,2.37-4.81,4.28-8.66,5.74-2.11.78-3.87,1.16-5.29,1.16-1.92,0-2.89-.84-2.89-2.53,0-1.14.55-2,1.65-2.6.28-.14,1.83-.52,4.67-1.16,1.69-.36,3.25-1.16,4.67-2.39,1.24-1.05,1.85-2.19,1.85-3.42,0-.96-.27-1.66-.82-2.12-.55-.46-1.37-.68-2.47-.68-2.66,0-5.59,1.07-8.79,3.21-3.71,2.42-5.57,5.29-5.57,8.61,0,2.37,1.21,5.33,3.64,8.89,2.7,3.87,4.05,7.16,4.05,9.84,0,4.01-1.79,7.16-5.36,9.43-2.2,1.41-4.7,2.12-7.49,2.12-4.4,0-7.74-1.57-10.03-4.72-1.6-2.23-2.4-4.88-2.4-7.93,0-3.55.92-6.54,2.75-8.96,1.19-1.59,2.43-2.39,3.71-2.39,1.14,0,1.72.46,1.72,1.37,0,.37-.21.91-.62,1.64-1.05,1.96-1.58,4.26-1.58,6.9,0,2.23.8,4.12,2.4,5.67,1.42,1.37,3.05,2.05,4.88,2.05s3.18-.59,4.19-1.78c.82-1,1.24-2.28,1.24-3.83,0-1.91-1.1-4.4-3.3-7.45-3.02-4.19-4.54-8-4.54-11.42,0-4.56,2.5-8.59,7.49-12.1,4.85-3.37,9.98-5.06,15.39-5.06Z" fill="#fff" stroke="#000" stroke-miterlimit="10"/><path d="M592.38,200.84c-2.98,4.6-5.73,9.75-8.24,15.45-3.62,8.11-5.43,14.17-5.43,18.18,0,1.14.24,2.01.72,2.6.48.59,1.2.89,2.17.89,2.29,0,5.06-2.14,8.31-6.43,2.06-2.64,3.89-5.29,5.5-7.93.87-1.5,1.81-2.26,2.82-2.26.59,0,1.1.21,1.51.62.37.41.55.82.55,1.23,0,1.69-2.22,5.45-6.66,11.28-5.31,7.02-10.17,10.53-14.57,10.53-2.34,0-4.28-1.07-5.84-3.21-.96-1.37-1.44-3.3-1.44-5.81,0-5.51,1.6-11.94,4.81-19.28.78-1.82,2.93-6.22,6.46-13.19-1.24.32-2.18.48-2.82.48-.96,0-1.81-.23-2.54-.68-1.01-.64-1.51-1.44-1.51-2.39,0-1.14.66-2.05,1.99-2.73.37-.18,2.06-.48,5.08-.89,1.1-.18,2.7-.62,4.81-1.3,1.6-2.87,4.21-6.77,7.83-11.69,2.02-2.73,3.41-4.51,4.19-5.33,1.1-1.14,2.06-1.71,2.89-1.71.59,0,1.19.32,1.79.96.55.59.83,1.19.83,1.78,0,1.19-1.28,3.53-3.85,7.04-1.7,2.28-2.96,4.12-3.78,5.54,5.08-1.37,8.73-2.05,10.92-2.05,2.52,0,3.78,1.05,3.78,3.14,0,1.05-.44,1.82-1.31,2.32-.46.27-1.65.5-3.57.68-.78-.04-4.24.82-10.38,2.6-1.7.5-3.37,1.03-5.02,1.57Z" fill="#fff" stroke="#000" stroke-miterlimit="10"/><path d="M619.59,202.27c.78,0,1.42.3,1.92.89.37.5.55,1,.55,1.5,0,.82-.66,2.19-1.99,4.1-4.76,7.34-8.15,13.38-10.17,18.12-2.15,4.88-4.05,9.89-5.7,15.04-.73,2.28-1.88,3.42-3.44,3.42-.92,0-1.65-.36-2.2-1.09-.5-.59-.76-1.23-.76-1.91,0-1.37,1.47-5.92,4.4-13.67,2.29-6.11,6-12.85,11.13-20.23,1.65-2.42,2.89-4.03,3.71-4.85.83-.87,1.67-1.3,2.54-1.3ZM632.65,176.91c2.06,0,3.09,1.05,3.09,3.14,0,1.91-1.01,4.03-3.02,6.36-1.92,2.23-3.78,3.35-5.57,3.35-.87,0-1.58-.32-2.13-.96-.55-.59-.82-1.32-.82-2.19,0-2.19,1.21-4.51,3.64-6.97,1.79-1.82,3.39-2.73,4.81-2.73Z" fill="#fff" stroke="#000" stroke-miterlimit="10"/><path d="M648.31,223.81c-2.98,7.34-4.47,12.92-4.47,16.75,0,1.87.37,3.42,1.1,4.65.92,1.55,2.13,2.32,3.64,2.32,3.11,0,6.71-2.07,10.79-6.22,2.7-2.64,4.97-5.33,6.8-8.07,1.19-1.82,2.31-2.73,3.37-2.73s1.58.52,1.58,1.57c0,1.73-2.11,5.29-6.32,10.66-6.23,7.98-12.28,11.96-18.14,11.96-3.53,0-6.02-1.71-7.49-5.13-1.1-2.51-1.65-5.15-1.65-7.93,0-2.32.55-5.76,1.65-10.32-2.98,2.46-7.49,8.48-13.54,18.05-1.6,2.6-3.07,3.9-4.4,3.9-.69,0-1.28-.3-1.79-.89-.5-.64-.76-1.28-.76-1.91,0-1.82,2.4-7.91,7.21-18.25,8.47-18.09,17.54-33.31,27.21-45.66,5.22-6.74,9.92-11.67,14.08-14.77,3.75-2.83,6.76-4.24,9-4.24,1.01,0,1.9.41,2.68,1.23,1.01,1,1.51,2.23,1.51,3.69,0,3.87-2.04,8.84-6.12,14.9-4.26,6.24-11.5,13.79-21.71,22.63-5.73,4.92-10.88,8.8-15.46,11.62-.6,1.19-2.27,4.65-5.02,10.39,5.73-6.15,10.26-10.39,13.6-12.71,2.15-1.46,5.06-2.98,8.73-4.58,2.47-1.05,4.26-1.57,5.36-1.57.59,0,1.12.23,1.58.68.5.41.76.96.76,1.64,0,1.5-1.03,2.55-3.09,3.14-3.48,1.05-7.05,2.78-10.72,5.2ZM642.4,212.05c7.51-4.92,14.52-11.19,21.02-18.8,3.25-3.78,5.86-7.43,7.83-10.94,1.37-2.46,2.06-4.21,2.06-5.26s-.48-1.57-1.44-1.57c-2.57,0-6.99,3.92-13.26,11.76-5.18,6.52-10.58,14.79-16.21,24.81Z" fill="#fff" stroke="#000" stroke-miterlimit="10"/></g></svg>